<?xml version="1.0" encoding="UTF-8"?><!DOCTYPE svg PUBLIC "-//W3C//DTD SVG 1.1//EN" "http://www.w3.org/Graphics/SVG/1.1/DTD/svg11.dtd"><svg xmlns="http://www.w3.org/2000/svg"><symbol id="icon-account" viewBox="0 0 32 32"><path d="M30.4 12.7l-3.1-.6c-.2-.4-.3-.9-.5-1.3l1.7-2.6c.5-.8.4-1.8-.2-2.5l-1.9-1.9c-.4-.4-.9-.6-1.4-.6-.4 0-.8.1-1.1.3l-2.6 1.7c-.4-.2-.8-.4-1.3-.5l-.6-3.1c-.2-.9-1-1.6-2-1.6h-2.7c-1 0-1.8.7-2 1.6l-.6 3.1c-.4.2-.9.3-1.3.5L8.2 3.5c-.3-.2-.7-.3-1.1-.3-.5 0-1 .2-1.4.6L3.8 5.7c-.7.7-.8 1.7-.2 2.5l1.7 2.6c-.2.4-.4.8-.5 1.3l-3.1.6c-.9.2-1.6 1-1.6 2v2.7c0 1 .7 1.8 1.6 2l3.1.6c.2.4.3.9.5 1.3l-1.7 2.6c-.5.8-.4 1.9.3 2.5l1.9 1.9c.4.4.9.6 1.4.6.4 0 .8-.1 1.1-.3l2.6-1.7c.4.2.8.4 1.3.5l.6 3.1c.2.9 1 1.6 2 1.6h2.7c1 0 1.8-.7 2-1.6l.6-3.1c.4-.2.9-.3 1.3-.5l2.6 1.7c.3.2.7.3 1.1.3.5 0 1-.2 1.4-.6l1.9-1.9c.7-.7.8-1.7.3-2.5L27 21.3c.2-.4.4-.8.5-1.3l3.1-.6c.9-.2 1.6-1 1.6-2v-2.7c0-1-.7-1.8-1.6-2zM26.9 18c-.7.1-1.3.6-1.5 1.3-.1.4-.3.7-.4 1.1-.3.6-.3 1.4.1 2l1.7 2.6-1.9 1.9-2.6-1.7c-.3-.2-.7-.3-1.1-.3-.3 0-.6.1-.9.2-.3.2-.7.3-1.1.4-.7.2-1.2.8-1.3 1.5l-.6 3.1h-2.7L14 27c-.1-.7-.6-1.3-1.3-1.5-.4-.1-.7-.3-1.1-.4-.3-.1-.6-.2-.9-.2-.4 0-.8.1-1.1.3L7 26.9 5.1 25l1.7-2.6c.4-.6.4-1.3.1-2-.2-.3-.3-.7-.4-1.1-.2-.7-.8-1.2-1.5-1.3l-3.1-.6v-2.7l3.1-.6c.7-.1 1.3-.6 1.5-1.3.1-.4.3-.7.4-1.1.3-.6.3-1.4-.1-2L5.1 7.1 7 5.2l2.6 1.7c.3.2.7.3 1.1.3.3 0 .6-.1.9-.2.3-.2.7-.3 1.1-.4.7-.2 1.2-.8 1.3-1.5l.6-3.1h2.7l.6 3.1c.1.7.6 1.3 1.3 1.5.4.1.7.3 1.1.4.3.1.6.2.9.2.4 0 .8-.1 1.1-.3l2.6-1.7 1.9 1.9-1.7 2.6c-.4.6-.4 1.3-.1 2 .2.3.3.7.4 1.1.2.7.8 1.2 1.5 1.3l3.1.6v2.7l-3.1.6zM16 9c-3.9 0-7 3.1-7 7s3.1 7 7 7 7-3.1 7-7-3.1-7-7-7zm0 13.1c-3.4 0-6.1-2.7-6.1-6.1s2.7-6.1 6.1-6.1c3.4 0 6.1 2.7 6.1 6.1 0 3.4-2.7 6.1-6.1 6.1zM16 12c-2.2 0-4 1.8-4 4s1.8 4 4 4 4-1.8 4-4-1.8-4-4-4zm0 7c-1.7 0-3-1.3-3-3s1.3-3 3-3 3 1.3 3 3-1.3 3-3 3z"/></symbol><symbol id="icon-add-detail" viewBox="0 0 32 32"><path d="M29.4 2.6C27.8 1 25.6 0 23.5 0c-1.8 0-3.5.7-4.7 1.9l-4.9 4.9L3.6 17.2c-.5.5-.8 1.1-1 1.7L.3 27.4s-.2.7-.2 1c0 1.9 1.6 3.5 3.5 3.5.4 0 1.1-.2 1.2-.2l8.5-2.2c.6-.2 1.2-.5 1.7-1l15.3-15.4c2.8-2.8 2.5-7.4-.7-10.6zM16 23.8c-.1-.9-.3-1.8-.7-2.6l9.5-9.5c.6 1.8.3 3.7-1 5l-7.7 7.8v-.7zm-1.2-3.5c-.4-.6-.8-1.2-1.3-1.7-.6-.6-1.3-1.1-2-1.5L21 7.6c.7.3 1.5.8 2.1 1.4.5.5 1 1.1 1.3 1.8l-9.5 9.5zm-4.3-3.7c-.9-.4-1.9-.6-2.9-.6l7.7-7.8c1.2-1.1 2.9-1.5 4.6-1.1l-9.4 9.4zM4.2 29.9c-.1 0-.4.1-.7.1-.8 0-1.5-.7-1.5-1.5 0-.2.1-.5.1-.6l1.1-3.8c1.1 0 2.4.4 3.3 1.4 1 1 1.4 2.2 1.4 3.4l-3.7 1zm4.7-1.3c0-1.3-.6-2.7-1.7-3.8-1-1-2.4-1.6-3.8-1.7l1-3.6c.1-.2.2-.5.4-.7 2-1.4 5.1-1 7.2 1.1 2.3 2.3 2.6 5.6.9 7.6-.1.1-.2.1-.4.2l-3.7 1zm19.8-16.8L27 13.5v-.7c-.2-1.9-1.1-3.8-2.5-5.3-1.6-1.6-3.8-2.6-5.9-2.6l1.7-1.7c.8-.8 2-1.3 3.3-1.3 1.6 0 3.3.7 4.5 2 1.2 1.2 1.9 2.7 2 4.2.1 1.4-.4 2.7-1.3 3.6z"/></symbol><symbol id="icon-add" viewBox="0 0 24 24"><path d="M12 1q2.2 0 4.3.9t3.5 2.3 2.3 3.5.9 4.3-.9 4.3-2.3 3.5-3.5 2.3-4.3.9-4.3-.9-3.5-2.3-2.3-3.5T1 12t.9-4.3 2.3-3.5 3.5-2.3T12 1zm0 2q-1.8 0-3.5.7T5.6 5.6 3.7 8.5 3 12t.7 3.5 1.9 2.9 2.9 1.9 3.5.7 3.5-.7 2.9-1.9 1.9-2.9.7-3.5-.7-3.5-1.9-2.9-2.9-1.9T12 3zm0 4q.4 0 .7.3t.3.7v3h3q.4 0 .7.3t.3.7-.3.7-.7.3h-3v3q0 .4-.3.7t-.7.3-.7-.3-.3-.7v-3H8q-.4 0-.7-.3T7 12t.3-.7.7-.3h3V8q0-.4.3-.7T12 7z"/></symbol><symbol id="icon-billing" viewBox="0 0 32 32"><path d="M31.4 10.6l-10-10c-.5-.5-1.2-.7-1.9-.5-.4.1-.7.3-.9.5-.2.2-.4.5-.5.8-.5 1.5-1.2 2.7-2.4 3.9-1.5 1.5-3.6 2.7-5.7 4-2.3 1.3-4.6 2.7-6.5 4.6C1.9 15.5.8 17.3.1 19.5c-.2.7 0 1.5.5 2l10 10c.5.5 1.2.7 1.9.5.4-.1.7-.3.9-.5.2-.2.4-.5.5-.8.5-1.5 1.2-2.7 2.4-3.9 1.5-1.5 3.6-2.7 5.7-4 2.3-1.3 4.6-2.7 6.5-4.6 1.6-1.6 2.7-3.4 3.4-5.6.2-.7 0-1.5-.5-2zM12 30L2 20c2.8-9.2 15.2-8.8 18-18l10 10c-2.8 9.2-15.2 8.8-18 18zm7.6-15.1c-.3-.3-.7-.5-1-.6-.3-.1-.7-.1-1-.1-.3 0-.7.1-1 .2-.3.1-.7.3-1 .4-.5-.6-1.1-1.2-1.6-1.8.2-.2.5-.3.7-.3.2 0 .4 0 .7.1.2.1.4.1.6.1.2 0 .3 0 .5-.1.1-.1.2-.3.2-.5s-.1-.4-.2-.6c-.2-.2-.5-.4-.8-.4-.3-.1-.6 0-.9 0-.3.1-.6.2-.9.4s-.5.3-.7.5L13 12c-.1-.1-.2-.1-.3-.1-.1 0-.2 0-.3.1-.1.1-.1.2-.1.3 0 .1.1.2.1.3l.2.2c-.3.3-.5.7-.6 1-.2.4-.3.7-.3 1.1 0 .4 0 .7.1 1 .1.3.3.6.6.8.5.4 1 .6 1.7.5.6 0 1.3-.2 2.1-.6.6.7 1.2 1.4 1.8 2-.2.2-.5.3-.7.4h-.5c-.2 0-.3-.1-.4-.2-.1-.1-.3-.2-.4-.2-.1-.1-.3-.1-.4-.1s-.3.1-.4.2c-.2.1-.2.3-.2.5s.1.4.3.6c.2.2.4.4.7.5s.6.2.9.2c.3 0 .7 0 1.1-.2.4-.1.7-.4 1.1-.7.2.2.4.3.5.5.1.1.2.1.3.1.1 0 .2-.1.3-.1.1-.1.1-.2.1-.3 0-.1-.1-.2-.1-.2-.2-.1-.4-.3-.5-.4.3-.4.5-.8.7-1.1.2-.4.3-.8.3-1.1 0-.3 0-.7-.1-.9-.1-.3-.3-.5-.6-.8zm-5.6.7c-.3 0-.5-.1-.7-.3-.1-.1-.2-.2-.2-.3 0-.1-.1-.3 0-.4 0-.1.1-.3.1-.5.1-.2.2-.3.3-.5.5.5 1 1.1 1.5 1.6-.4.2-.7.3-1 .3zm4.7 2c-.1.2-.2.3-.3.4-.6-.6-1.1-1.2-1.7-1.8.1-.1.3-.1.5-.2s.3-.1.5-.1h.5c.2 0 .3.1.5.3.1.1.2.3.3.4v.5c0 .2-.1.3-.2.5zm-4 4.6c.2-.2.5-.2.7 0 .2.2.2.5 0 .7h-.1c-.6.5-1.2.9-1.7 1.5-.5.5-1 1-1.4 1.6l-.6.9s0 .1-.1.1c-.2.2-.5.2-.7 0-.2-.2-.2-.4-.1-.6l.7-.9c.4-.6.9-1.2 1.5-1.7.6-.6 1.2-1.1 1.8-1.6zm3.7-14.5c.5-.5 1-1 1.4-1.6l.7-.9.1-.1c.2-.2.5-.2.7 0 .2.2.2.5 0 .7l-.7.9c-.4.6-.9 1.2-1.5 1.7-.6.6-1.2 1.1-1.8 1.6-.2.2-.5.2-.7 0-.2-.2-.2-.5 0-.7l.1-.1c.6-.4 1.2-.9 1.7-1.4z"/></symbol><symbol id="icon-calendar" viewBox="0 0 32 32"><path d="M29.3 3H25V1c0-.6-.4-1-1-1s-1 .4-1 1v2h-6V1c0-.6-.4-1-1-1s-1 .4-1 1v2H9V1c0-.6-.4-1-1-1S7 .4 7 1v2H2.7C1.2 3 0 4.2 0 5.7v23.7c0 1.5 1.2 2.7 2.7 2.7h26.7c1.5 0 2.7-1.2 2.7-2.7V5.7c0-1.5-1.2-2.7-2.7-2.7zm.7 26.3c0 .4-.3.7-.7.7H2.6c-.4 0-.7-.3-.7-.7V5.6c0-.4.3-.7.7-.7h4.3v2c0 .6.4 1 1 1s1-.4 1-1v-2h6v2c0 .6.4 1 1 1s1-.4 1-1v-2h6v2c0 .6.4 1 1 1s1-.4 1-1v-2h4.3c.4 0 .7.3.7.7v23.7zM7 12h4v3H7zm0 5h4v3H7zm0 5h4v3H7zm7 0h4v3h-4zm0-5h4v3h-4zm0-5h4v3h-4zm7 10h4v3h-4zm0-5h4v3h-4zm0-5h4v3h-4z"/></symbol><symbol id="icon-checked" viewBox="0 0 24 24"><path d="M12 1q2.2 0 4.3.9t3.5 2.3 2.3 3.5.9 4.3-.9 4.3-2.3 3.5-3.5 2.3-4.3.9-4.3-.9-3.5-2.3-2.3-3.5T1 12t.9-4.3 2.3-3.5 3.5-2.3T12 1zm0 2q-1.8 0-3.5.7T5.6 5.6 3.7 8.5 3 12t.7 3.5 1.9 2.9 2.9 1.9 3.5.7 3.5-.7 2.9-1.9 1.9-2.9.7-3.5-.7-3.5-1.9-2.9-2.9-1.9T12 3zm3.4 6q.4 0 .7.3t.3.7-.3.7l-4.2 4.2q-.3.3-.7.3-.4 0-.7-.3l-2.1-2.1q-.3-.3-.3-.7 0-.4.3-.7t.7-.3.7.3l1.4 1.4 3.5-3.5q.3-.3.7-.3z"/></symbol><symbol id="icon-contact-email" viewBox="0 0 32 32"><path d="M28 5H4C1.8 5 0 6.8 0 9v13c0 2.2 1.8 4 4 4h24c2.2 0 4-1.8 4-4V9c0-2.2-1.8-4-4-4zM2 10.3l7 5.3-7 5.3V10.4zM30 22c0 1.1-.9 2-2 2H4c-1.1 0-2-.9-2-2l7.8-5.9 4.4 3.3c.5.4 1.2.6 1.8.6.6 0 1.3-.2 1.8-.6l4.4-3.3L30 22zm0-1.2l-7-5.2 7-5.2v10.5zm-12.8-2.2c-.3.3-.8.4-1.2.4s-.9-.1-1.2-.4L2 9c0-1.1.9-2 2-2h24c1.1 0 2 .9 2 2l-12.8 9.6z"/></symbol><symbol id="icon-contact-phone" viewBox="0 0 32 32"><path d="M24 0H8C6.3 0 5 1.3 5 3v26c0 1.7 1.3 3 3 3h16c1.7 0 3-1.3 3-3V3c0-1.7-1.3-3-3-3zm1 29c0 .6-.4 1-1 1H8c-.6 0-1-.4-1-1v-2h18v2zm0-3H7V6h18v20zm0-21H7V3c0-.6.4-1 1-1h16c.6 0 1 .4 1 1v2zm-7-1.5c0 .3-.2.5-.5.5h-3c-.3 0-.5-.2-.5-.5s.2-.5.5-.5h3c.3 0 .5.2.5.5zm-1 25c0 .3-.2.5-.5.5h-1c-.3 0-.5-.2-.5-.5s.2-.5.5-.5h1c.3 0 .5.2.5.5z"/></symbol><symbol id="icon-contact-twitter" viewBox="0 0 24 24"><path d="M8.2 21.4c-2.4 0-4.9-.7-7.4-2.1-.2-.1-.3-.4-.2-.6.1-.2.3-.4.5-.3 1.9.2 3.8-.2 5.3-1.1-1.7-.4-3.1-1.5-3.8-3.1-.1-.2 0-.4.1-.5.1-.1.3-.2.5-.1s.4.1.6.1c-1.3-.8-2.7-2.2-2.7-4.4 0-.2.1-.4.3-.5.2-.1.4-.1.5.1.2.1.4.2.5.3-.4-.5-.7-1.1-.9-1.8-.3-1.3-.1-2.6.6-3.8.1-.1.2-.2.4-.2s.3.1.4.2C4.4 5.4 7 7.7 11.2 8.1c-.1-1.3.3-3.5 2.2-4.6 2.2-1.3 4.4-1.1 6.3.5.8-.2 2.1-.8 2.4-.9.2-.1.4-.1.6 0 .2.1.3.3.2.5-.1.5-.4 1-.8 1.5.3-.1.5-.2.6-.2.2-.1.4-.1.6.1.2.2.2.4.1.6-.6.9-1.5 1.8-2.2 2.3.3 3.1-1 6.6-3.4 9.3-2.6 2.9-6 4.5-9.7 4.5l.1-.3zm-5.1-2c1.7.7 3.4 1 5 1 3.4 0 6.6-1.5 8.9-4.1 2.3-2.6 3.5-5.9 3.1-8.8 0-.2.1-.4.2-.5.3-.2.7-.5 1.1-.9-.4.1-.8.1-1.1.1-.2 0-.4-.2-.5-.4.1-.1.2-.4.5-.5.3-.1.7-.5 1-.9-.6.2-1.2.4-1.6.5-.2 0-.3 0-.4-.1-1.6-1.5-3.4-1.7-5.3-.5-1.7 1-1.8 3.4-1.6 4.1 0 .2 0 .3-.1.4-.1.1-.3.2-.4.2-4.5-.2-7.4-2.3-9.1-4.3-.5 1-.4 1.8-.3 2.4.3 1.1 1 2 1.6 2.3.2.1.3.3.2.5 0 .2-.2.4-.4.4-.5.2-1.1.1-1.7-.1.5 2.1 2.7 3.1 3.3 3.1.2 0 .4.2.4.4.1.2 0 .4-.2.5-.4.4-1.1.6-1.8.5.8 1.1 2.1 1.8 3.7 1.8.2 0 .4.1.5.3.1.2 0 .4-.1.5-1.2 1.1-3 1.9-4.9 2.1z"/></symbol><symbol id="icon-contact-website" viewBox="0 0 32 32"><path d="M15.5 0C6.9 0 0 6.9 0 15.5S6.9 31 15.5 31 31 24.1 31 15.5 24.1 0 15.5 0zM29 15h-6c-.1-2.2-.4-4.3-1.1-6.3 1.4-.6 2.6-1.3 3.7-2.2 2 2.3 3.3 5.2 3.4 8.5zM14.9 29c-1.7-1.4-3.1-3.2-4.1-5.3 1.3-.4 2.7-.6 4.1-.7v5.9h-.1zm1.2-27c1.9 1.6 3.4 3.7 4.5 6.1-1.4.5-2.9.8-4.5.8V2h.1zm1.6.2c2.8.5 5.2 1.7 7.2 3.6-1 .8-2.2 1.5-3.4 2-.9-2.2-2.2-4.1-3.7-5.6zM15 2v6.9c-1.6-.1-3.1-.3-4.5-.8 1-2.5 2.6-4.6 4.5-6.1h.1zM9.5 7.8c-1.2-.5-2.4-1.2-3.4-2 1.9-1.9 4.4-3.2 7.2-3.6-1.5 1.5-2.8 3.5-3.7 5.6zm.6 1.3c1.5.5 3.2.8 4.9.9v5H9c.1-2.1.4-4.1 1.1-5.9zM15 16v6c-1.6 0-3.1.3-4.5.8-.9-2.1-1.4-4.4-1.4-6.8h6zm-1.7 12.8c-2.5-.4-4.7-1.5-6.5-3.1 1-.7 2.1-1.3 3.2-1.7.9 1.8 2 3.4 3.4 4.8zm2.7.2v-5.9c1.4 0 2.8.3 4.1.7-1 2.1-2.4 3.9-4.1 5.3h-.1zm5.1-4.9c1.1.4 2.2 1 3.2 1.7-1.8 1.6-4.1 2.6-6.5 3.1 1.3-1.3 2.5-2.9 3.4-4.8zm-.6-1.3c-1.4-.5-3-.7-4.5-.8v-6h6c-.1 2.4-.6 4.7-1.4 6.8zM16 15v-5c1.7-.1 3.4-.4 4.9-.9.7 1.8 1 3.8 1.1 5.9h-6zM5.4 6.5c1.1.9 2.4 1.6 3.7 2.2C8.4 10.6 8 12.8 8 15H2c.1-3.2 1.4-6.2 3.4-8.5zM2 16h6c.1 2.6.6 5 1.5 7.1-1.3.5-2.4 1.2-3.5 1.9-2.3-2.3-3.8-5.5-4-9.1zm23 9.1c-1.1-.8-2.3-1.4-3.5-1.9.9-2.2 1.4-4.6 1.5-7.1h6c-.1 3.5-1.6 6.7-4 9.1z"/></symbol><symbol id="icon-contacts" viewBox="0 0 32 32"><path d="M31.1 28.3c-.2-.1-3.8-2.5-9.3-3.7 2-2.5 3.3-5.9 3.8-8.2.8-3.1.5-9.2-2.5-13.1C21.3 1.1 18.9-.1 16-.1s-5.3 1.2-7.1 3.4c-3 3.8-3.3 9.9-2.5 13.1.5 2.3 1.8 5.6 3.8 8.2-5.4 1.2-9.1 3.6-9.3 3.7-.7.5-1.1 1.4-.8 2.2.3.8 1 1.4 1.9 1.4h28c.9 0 1.7-.6 1.9-1.4.3-.8-.1-1.8-.8-2.2zm-10.8-4.9l-.3.4c-2.4 2.7-5.5 2.7-7.9 0l-.3-.4C9 19.9 7.6 15.2 8.2 10.8c.5-4.3 3-8.7 7.8-8.7s7.3 4.5 7.8 8.7c.6 4.5-.8 9.1-3.6 12.6zM2 30c.1-.1 3.5-2.3 8.6-3.4l2.5-.5c.9.6 1.9.9 2.9.9 1.1 0 2-.4 2.9-.9l2.5.5c5 1.1 8.4 3.3 8.6 3.4H2z"/></symbol><symbol id="icon-dashboard" viewBox="0 0 32 32"><path d="M31.4 11.2l-3-4c-.1-.2-.3-.3-.4-.4V2c0-1.1-.9-2-2-2H6C4.9 0 4 .9 4 2v4.8l-.4.4-3 4c-.4.5-.6 1.2-.6 1.8v1c0 1.7 1.3 3 3 3v13c0 1.1.9 2 2 2h22c1.1 0 2-.9 2-2V17c1.7 0 3-1.3 3-3v-1c0-.6-.2-1.3-.6-1.8zM26 2v4H6V2h20zM10.2 15H6l4-7h2.2l-2 7zm3-7h2.3v7h-4.3l2-7zm3.3 0h2.3l2 7h-4.3V8zm3.3 0H22l4 7h-4.2l-2-7zM2 14v-1c0-.2.1-.4.2-.6l3-4c.2-.3.5-.4.8-.4h2.9l-4 7H3c-.6 0-1-.4-1-1zm18 16h-7.5V20H20v10zm7 0h-6V20c0-.6-.4-1-1-1h-7.5c-.6 0-1 .4-1 1v10H5V17h22v13zm3-16c0 .6-.4 1-1 1h-1.9l-4-7H26c.3 0 .6.1.8.4l3 4c.1.2.2.4.2.6v1z"/></symbol><symbol id="icon-events" viewBox="0 0 32 32"><path d="M16 17.7c3.3 0 6-2.7 6-6s-2.7-6-6-6-6 2.7-6 6 2.7 6 6 6zm0-11c2.8 0 5 2.2 5 5s-2.2 5-5 5-5-2.2-5-5 2.2-5 5-5zM16 0C9.4 0 4 5.3 4 12c0 7 6 14.2 10.4 19.2 0 0 .7.8 1.6.8h.1c.9 0 1.6-.8 1.6-.8 4.4-5 10.4-12.2 10.4-19.2 0-6.7-5.4-12-12-12zm.1 29.9l-.1.1-.1-.1C12.2 25.7 6 18.6 6 12.1c0-5.5 4.5-10 10-10s10 4.5 10 10c0 6.5-6.2 13.6-9.9 17.9z"/></symbol><symbol id="icon-export" viewBox="0 0 24 24"><path d="M12 1q.4 0 .7.3l5 5q.3.3.3.7 0 .4-.3.7T17 8q-.4 0-.7-.3L13 4.4V16q0 .4-.3.7t-.7.3-.7-.3-.3-.7V4.4L7.7 7.7Q7.4 8 7 8q-.4 0-.7-.3T6 7q0-.4.3-.7l5-5q.3-.3.7-.3zm10 14q.4 0 .7.3t.3.7v4q0 1.3-.9 2.1-.9.9-2.1.9H4q-1.2 0-2.1-.9Q1 21.2 1 20v-4q0-.4.3-.7T2 15t.7.3.3.7v4q0 .4.3.7t.7.3h16q.4 0 .7-.3t.3-.7v-4q0-.4.3-.7t.7-.3z"/></symbol><symbol id="icon-help" viewBox="0 0 32 32"><path d="M16 0C9.9 0 5 4.9 5 11c0 4 3.7 8.3 5 12.1 2 5.6 1.8 8.9 6 8.9 4.3 0 4-3.3 6-8.9 1.3-3.8 5-8.1 5-12.1 0-6.1-4.9-11-11-11zm2.6 27.2l-5 .6c-.2-.5-.4-1.1-.6-1.9l6.2-.8-.3.9c-.1.4-.2.8-.4 1.2zm-5.9-2.3c-.2-.6-.4-1.2-.6-1.9h7.8c-.1.4-.2.7-.4 1.1l-6.8.8zM16 30c-1 0-1.5-.1-2-1.2l4.2-.5c-.6 1.7-1.1 1.8-2.2 1.8zm4.7-9h-9.3c-.5-1.1-1.1-2.2-1.7-3.2C8.4 15.5 7 13.1 7 11c0-5 4-9 9-9s9 4 9 9c0 2-1.3 4.4-2.7 6.8-.6 1.1-1.2 2.1-1.7 3.2zM16 5c.3 0 .5.2.5.5s-.2.5-.5.5c-2.8 0-5 2.2-5 5 0 .3-.2.5-.5.5s-.5-.2-.5-.5c0-3.3 2.7-6 6-6z"/></symbol><symbol id="icon-hidesidebar" viewBox="0 0 25 30"><path d="M-.003 1v28c0 .6.4 1 1 1h7.7c.5 0 .9-.4.9-1s-.4-1-.9-1h-6.8V2h6.8c.5 0 .9-.4.9-1s-.4-1-.9-1h-7.7c-.6 0-1 .4-1 1zm17.6 9.7l3.8 3.3h-13.7c-.5 0-1 .4-1 1s.5 1 1 1h13.7l-3.8 3.3c-.4.4-.4 1 0 1.4.4.4 1 .4 1.4 0l5.7-4.9c.2-.2.3-.5.3-.8 0-.3-.1-.5-.3-.7l-5.7-5c-.4-.4-1-.4-1.4 0-.4.4-.4 1 0 1.4z" fill="#000" fill-rule="evenodd"/></symbol><symbol id="icon-import" viewBox="0 0 24 24"><path d="M12 1q.4 0 .7.3t.3.7v11.6l3.3-3.3q.3-.3.7-.3.4 0 .7.3t.3.7q0 .4-.3.7l-5 5q-.3.3-.7.3t-.7-.3l-5-5Q6 11.4 6 11q0-.4.3-.7T7 10q.4 0 .7.3l3.3 3.3V2q0-.4.3-.7T12 1zm10 14q.4 0 .7.3t.3.7v4q0 1.3-.9 2.1-.9.9-2.1.9H4q-1.2 0-2.1-.9Q1 21.2 1 20v-4q0-.4.3-.7T2 15t.7.3.3.7v4q0 .4.3.7t.7.3h16q.4 0 .7-.3t.3-.7v-4q0-.4.3-.7t.7-.3z"/></symbol><symbol id="icon-integration" viewBox="0 0 32 32"><path d="M25.9 13.1C25.5 8.5 21.7 5 17 5c-3.6 0-6.7 2.1-8.1 5.2-.4-.1-.9-.2-1.4-.2C5 10 3 12 3 14.5c0 .5.1 1 .2 1.4C1.3 17 0 19.1 0 21.5 0 25.1 2.9 28 6.5 28h18c4.1 0 7.5-3.4 7.5-7.5 0-3.7-2.6-6.7-6.1-7.4zM24.5 26h-18C4 26 2 24 2 21.5c0-1.6.8-3 2.3-3.9 1.4-.8 1.5-.9.9-2.4-.1-.3-.1-.5-.1-.8 0-1.4 1.1-2.5 2.5-2.5 0 0 .7 0 1.4.2 1.1.5 1.3 0 1.8-1.2 1.1-2.5 3.6-4.1 6.3-4.1 3.6 0 6.6 2.7 6.9 6.3.1 1.4.1 1.4 1.6 1.8 2.6.5 4.5 2.8 4.5 5.4 0 3-2.5 5.5-5.5 5.5z"/></symbol><symbol id="icon-library" viewBox="0 0 32 32"><path d="M16 0C9.3 0 2 2 2 6.5v19C2 30 9.3 32 16 32s14-2 14-6.5v-19C30 2 22.7 0 16 0zm12 25.5C28 28 22.6 30 16 30S4 28 4 25.5v-3.7c2.1 2.1 7.1 3.2 12 3.2s9.9-1.1 12-3.2v3.7zm0-6C28 22 22.6 24 16 24S4 22 4 19.5v-3.7c2.1 2.1 7.1 3.2 12 3.2s9.9-1.1 12-3.2v3.7zm0-6C28 16 22.6 18 16 18S4 16 4 13.5v-3.4c2.6 2 7.4 2.9 12 2.9s9.4-.9 12-2.9v3.4zM16 11C9.4 11 4 9 4 6.5S9.4 2 16 2s12 2 12 4.5S22.6 11 16 11zm8 15c0-.6.4-1 1-1s1 .4 1 1-.4 1-1 1-1-.4-1-1zm0-6c0-.6.4-1 1-1s1 .4 1 1-.4 1-1 1-1-.4-1-1zm0-6c0-.6.4-1 1-1s1 .4 1 1-.4 1-1 1-1-.4-1-1z"/></symbol><symbol id="icon-messaging" viewBox="0 0 32 32"><path d="M16 7c.3 0 .5.2.5.5s-.2.5-.5.5c-5.3 0-10 2.8-10 6 0 .3-.2.5-.5.5S5 14.3 5 14c0-3.8 5-7 11-7zm0-5C7.2 2 0 7.4 0 14c0 4.1 2.8 7.8 7 9.9v.1c0 1.8-1.3 3.7-1.9 4.7 0 .1-.1.2-.1.4 0 .5.4.9.9.9h.3c3.1-.5 6.1-3.4 6.8-4.2 1 .1 2 .2 3.1.2 8.8 0 16-5.4 16-12s-7.2-12-16-12zm0 22c-.9 0-1.9-.1-2.8-.2h-.3c-.6 0-1.2.3-1.5.7-.4.5-1.6 1.7-3.1 2.5.4-.9.7-1.9.7-2.9v-.2c0-.8-.4-1.4-1.1-1.8C4.2 20.2 2 17.2 2 14 2 8.5 8.3 4 16 4s14 4.5 14 10-6.3 10-14 10z"/></symbol><symbol id="icon-notchecked" viewBox="0 0 22 22"><path d="M11 0c1.5 0 2.9.3 4.3.9 1.4.6 2.6 1.4 3.5 2.3.9.9 1.7 2.1 2.3 3.5.6 1.4.9 2.8.9 4.3s-.3 2.9-.9 4.3c-.6 1.4-1.4 2.6-2.3 3.5-.9.9-2.1 1.7-3.5 2.3-1.4.6-2.8.9-4.3.9s-2.9-.3-4.3-.9c-1.4-.6-2.6-1.4-3.5-2.3-.9-.9-1.7-2.1-2.3-3.5C.3 13.9 0 12.5 0 11s.3-2.9.9-4.3c.6-1.4 1.4-2.6 2.3-3.5.9-.9 2.1-1.7 3.5-2.3C8.1.3 9.5 0 11 0zm0 2c-1.2 0-2.4.2-3.5.7-1.1.5-2.1 1.1-2.9 1.9-.8.8-1.4 1.8-1.9 2.9C2.2 8.6 2 9.8 2 11c0 1.2.2 2.4.7 3.5.5 1.1 1.1 2.1 1.9 2.9.8.8 1.8 1.4 2.9 1.9 1.1.5 2.3.7 3.5.7 1.2 0 2.4-.2 3.5-.7 1.1-.5 2.1-1.1 2.9-1.9.8-.8 1.4-1.8 1.9-2.9.5-1.1.7-2.3.7-3.5 0-1.2-.2-2.4-.7-3.5-.5-1.1-1.1-2.1-1.9-2.9-.8-.8-1.8-1.4-2.9-1.9-1.1-.5-2.3-.7-3.5-.7z" fill="#000" fill-rule="evenodd"/></symbol><symbol id="icon-notifications" viewBox="0 0 32 32"><path d="M27 14c0-5-4-9-9-9-.3 0-.5-.2-.5-.5s.2-.5.5-.5c5.5 0 10 4.5 10 10 0 .3-.2.5-.5.5s-.5-.2-.5-.5zM9.1.9C8.5.3 7.8 0 7 0c-.4 0-.8.1-1.1.2C4.8.7 4 1.8 4 3v13.8L.9 19.9c-1.2 1.2-1.2 3.1 0 4.2l7 7c.6.6 1.4.9 2.1.9s1.5-.3 2.1-.9l3.1-3.1H29c1.2 0 2.3-.7 2.8-1.9.5-1.1.2-2.4-.6-3.3L9.2.8zm4.7 25.7l-3.1 3.1c-.3.3-.6.3-.7.3s-.5 0-.7-.3l-7-7c-.3-.3-.3-.6-.3-.7s0-.5.3-.7l3.1-3.1 8.4 8.4zm1.4-.6c-.2 0-.3.1-.4.1l-8.9-8.9c0-.1.1-.3.1-.4v-12l21.3 21.3h-12zm14.7-.6c-.2.4-.5.6-.9.6h-.3L6 3.3V3c0-.4.2-.8.6-.9.1-.1.3-.1.4-.1.3 0 .5.1.7.3l22 22c.3.3.4.7.2 1.1zM18 2c-.6 0-1-.4-1-1s.4-1 1-1c7.7 0 14 6.3 14 14 0 .6-.4 1-1 1s-1-.4-1-1c0-6.6-5.4-12-12-12z"/></symbol><symbol id="icon-remove" viewBox="0 0 32 32"><path d="M30 6.8C29.9 5.2 28.6 4 27 4h-3V3c0-1.7-1.3-3-3-3H11C9.3 0 8 1.3 8 3v1H5C3.4 4 2.1 5.2 2 6.8V9c0 1.1.9 2 2 2v17c0 2.2 1.8 4 4 4h16c2.2 0 4-1.8 4-4V11c1.1 0 2-.9 2-2V6.8zM10 3c0-.6.4-1 1-1h10c.6 0 1 .4 1 1v1H10V3zm16 25c0 1.1-.9 2-2 2H8c-1.1 0-2-.9-2-2V11h20v17zm2-20v1H4V7c0-.6.4-1 1-1h22c.6 0 1 .4 1 1v1zM9 28h2c.6 0 1-.4 1-1V14c0-.6-.4-1-1-1H9c-.6 0-1 .4-1 1v13c0 .6.4 1 1 1zm0-14h2v13H9V14zm6 14h2c.6 0 1-.4 1-1V14c0-.6-.4-1-1-1h-2c-.6 0-1 .4-1 1v13c0 .6.4 1 1 1zm0-14h2v13h-2V14zm6 14h2c.6 0 1-.4 1-1V14c0-.6-.4-1-1-1h-2c-.6 0-1 .4-1 1v13c0 .6.4 1 1 1zm0-14h2v13h-2V14z"/></symbol></svg>