<svg xmlns="http://www.w3.org/2000/svg" version="1.1" width="32" height="32" viewBox="0 0 32 32"><path d="M31.1 28.3c-0.2-0.1-3.8-2.5-9.3-3.7 2-2.5 3.3-5.9 3.8-8.2 0.8-3.1 0.5-9.2-2.5-13.1-1.8-2.2-4.2-3.4-7.1-3.4s-5.3 1.2-7.1 3.4c-3 3.8-3.3 9.9-2.5 13.1 0.5 2.3 1.8 5.6 3.8 8.2-5.4 1.2-9.1 3.6-9.3 3.7-0.7 0.5-1.1 1.4-0.8 2.2 0.3 0.8 1 1.4 1.9 1.4h28c0.9 0 1.7-0.6 1.9-1.4 0.3-0.8-0.1-1.8-0.8-2.2zM20.3 23.4l-0.3 0.4c-2.4 2.7-5.5 2.7-7.9 0l-0.3-0.4c-2.8-3.5-4.2-8.2-3.6-12.6 0.5-4.3 3-8.7 7.8-8.7s7.3 4.5 7.8 8.7c0.6 4.5-0.8 9.1-3.6 12.6zM2 30c0.1-0.1 3.5-2.3 8.6-3.4l2.5-0.5c0.9 0.6 1.9 0.9 2.9 0.9 1.1 0 2-0.4 2.9-0.9l2.5 0.5c5 1.1 8.4 3.3 8.6 3.4h-28z" fill="#000000"/></svg>