<svg xmlns="http://www.w3.org/2000/svg" version="1.1" width="32" height="32" viewBox="0 0 32 32"><path d="M30.4 12.7l-3.1-0.6c-0.2-0.4-0.3-0.9-0.5-1.3l1.7-2.6c0.5-0.8 0.4-1.8-0.2-2.5l-1.9-1.9c-0.4-0.4-0.9-0.6-1.4-0.6-0.4 0-0.8 0.1-1.1 0.3l-2.6 1.7c-0.4-0.2-0.8-0.4-1.3-0.5l-0.6-3.1c-0.2-0.9-1-1.6-2-1.6h-2.7c-1 0-1.8 0.7-2 1.6l-0.6 3.1c-0.4 0.2-0.9 0.3-1.3 0.5l-2.6-1.7c-0.3-0.2-0.7-0.3-1.1-0.3-0.5 0-1 0.2-1.4 0.6l-1.9 1.9c-0.7 0.7-0.8 1.7-0.2 2.5l1.7 2.6c-0.2 0.4-0.4 0.8-0.5 1.3l-3.1 0.6c-0.9 0.2-1.6 1-1.6 2v2.7c0 1 0.7 1.8 1.6 2l3.1 0.6c0.2 0.4 0.3 0.9 0.5 1.3l-1.7 2.6c-0.5 0.8-0.4 1.9 0.3 2.5l1.9 1.9c0.4 0.4 0.9 0.6 1.4 0.6 0.4 0 0.8-0.1 1.1-0.3l2.6-1.7c0.4 0.2 0.8 0.4 1.3 0.5l0.6 3.1c0.2 0.9 1 1.6 2 1.6h2.7c1 0 1.8-0.7 2-1.6l0.6-3.1c0.4-0.2 0.9-0.3 1.3-0.5l2.6 1.7c0.3 0.2 0.7 0.3 1.1 0.3 0.5 0 1-0.2 1.4-0.6l1.9-1.9c0.7-0.7 0.8-1.7 0.3-2.5l-1.7-2.6c0.2-0.4 0.4-0.8 0.5-1.3l3.1-0.6c0.9-0.2 1.6-1 1.6-2v-2.7c0-1-0.7-1.8-1.6-2zM26.9 18c-0.7 0.1-1.3 0.6-1.5 1.3-0.1 0.4-0.3 0.7-0.4 1.1-0.3 0.6-0.3 1.4 0.1 2l1.7 2.6-1.9 1.9-2.6-1.7c-0.3-0.2-0.7-0.3-1.1-0.3-0.3 0-0.6 0.1-0.9 0.2-0.3 0.2-0.7 0.3-1.1 0.4-0.7 0.2-1.2 0.8-1.3 1.5l-0.6 3.1h-2.7l-0.6-3.1c-0.1-0.7-0.6-1.3-1.3-1.5-0.4-0.1-0.7-0.3-1.1-0.4-0.3-0.1-0.6-0.2-0.9-0.2-0.4 0-0.8 0.1-1.1 0.3l-2.6 1.7-1.9-1.9 1.7-2.6c0.4-0.6 0.4-1.3 0.1-2-0.2-0.3-0.3-0.7-0.4-1.1-0.2-0.7-0.8-1.2-1.5-1.3l-3.1-0.6 0-2.7 3.1-0.6c0.7-0.1 1.3-0.6 1.5-1.3 0.1-0.4 0.3-0.7 0.4-1.1 0.3-0.6 0.3-1.4-0.1-2l-1.7-2.6 1.9-1.9 2.6 1.7c0.3 0.2 0.7 0.3 1.1 0.3 0.3 0 0.6-0.1 0.9-0.2 0.3-0.2 0.7-0.3 1.1-0.4 0.7-0.2 1.2-0.8 1.3-1.5l0.6-3.1 2.7 0 0.6 3.1c0.1 0.7 0.6 1.3 1.3 1.5 0.4 0.1 0.7 0.3 1.1 0.4 0.3 0.1 0.6 0.2 0.9 0.2 0.4 0 0.8-0.1 1.1-0.3l2.6-1.7 1.9 1.9-1.7 2.6c-0.4 0.6-0.4 1.3-0.1 2 0.2 0.3 0.3 0.7 0.4 1.1 0.2 0.7 0.8 1.2 1.5 1.3l3.1 0.6 0 2.7-3.1 0.6zM16 9c-3.9 0-7 3.1-7 7 0 3.9 3.1 7 7 7s7-3.1 7-7c0-3.9-3.1-7-7-7zM16 22.1c-3.4 0-6.1-2.7-6.1-6.1s2.7-6.1 6.1-6.1c3.4 0 6.1 2.7 6.1 6.1 0 3.4-2.7 6.1-6.1 6.1zM16 12c-2.2 0-4 1.8-4 4s1.8 4 4 4c2.2 0 4-1.8 4-4s-1.8-4-4-4zM16 19c-1.7 0-3-1.3-3-3s1.3-3 3-3 3 1.3 3 3c0 1.7-1.3 3-3 3z" fill="#000000"/></svg>