<svg xmlns="http://www.w3.org/2000/svg" version="1.1" width="24" height="24" viewBox="0 0 24 24"><path d="M12 1q2.2 0 4.3 0.9t3.5 2.3 2.3 3.5 0.9 4.3-0.9 4.3-2.3 3.5-3.5 2.3-4.3 0.9-4.3-0.9-3.5-2.3-2.3-3.5-0.9-4.3 0.9-4.3 2.3-3.5 3.5-2.3 4.3-0.9zM12 3q-1.8 0-3.5 0.7t-2.9 1.9-1.9 2.9-0.7 3.5 0.7 3.5 1.9 2.9 2.9 1.9 3.5 0.7 3.5-0.7 2.9-1.9 1.9-2.9 0.7-3.5-0.7-3.5-1.9-2.9-2.9-1.9-3.5-0.7zM15.4 9q0.4 0 0.7 0.3t0.3 0.7-0.3 0.7l-4.2 4.2q-0.3 0.3-0.7 0.3-0.4 0-0.7-0.3l-2.1-2.1q-0.3-0.3-0.3-0.7 0-0.4 0.3-0.7t0.7-0.3 0.7 0.3l1.4 1.4 3.5-3.5q0.3-0.3 0.7-0.3z" fill="#000000"/></svg>