<svg xmlns="http://www.w3.org/2000/svg" enable-background="new 0 0 24 24" height="24" version="1.1" viewBox="0 0 24 24" width="24" xml:space="preserve"><path d="M8.2 21.4c-2.4 0-4.9-0.7-7.4-2.1 -0.2-0.1-0.3-0.4-0.2-0.6 0.1-0.2 0.3-0.4 0.5-0.3 1.9 0.2 3.8-0.2 5.3-1.1 -1.7-0.4-3.1-1.5-3.8-3.1 -0.1-0.2 0-0.4 0.1-0.5 0.1-0.1 0.3-0.2 0.5-0.1 0.2 0.1 0.4 0.1 0.6 0.1 -1.3-0.8-2.7-2.2-2.7-4.4 0-0.2 0.1-0.4 0.3-0.5 0.2-0.1 0.4-0.1 0.5 0.1C2.1 9 2.3 9.1 2.4 9.2c-0.4-0.5-0.7-1.1-0.9-1.8C1.2 6.1 1.4 4.8 2.1 3.6c0.1-0.1 0.2-0.2 0.4-0.2 0.2 0 0.3 0.1 0.4 0.2 1.5 1.8 4.1 4.1 8.3 4.5 -0.1-1.3 0.3-3.5 2.2-4.6 2.2-1.3 4.4-1.1 6.3 0.5 0.8-0.2 2.1-0.8 2.4-0.9 0.2-0.1 0.4-0.1 0.6 0 0.2 0.1 0.3 0.3 0.2 0.5 -0.1 0.5-0.4 1-0.8 1.5 0.3-0.1 0.5-0.2 0.6-0.2 0.2-0.1 0.4-0.1 0.6 0.1 0.2 0.2 0.2 0.4 0.1 0.6 -0.6 0.9-1.5 1.8-2.2 2.3 0.3 3.1-1 6.6-3.4 9.3 -2.6 2.9-6 4.5-9.7 4.5C8.2 21.4 8.2 21.4 8.2 21.4zM3.1 19.4c1.7 0.7 3.4 1 5 1h0c3.4 0 6.6-1.5 8.9-4.1 2.3-2.6 3.5-5.9 3.1-8.8 0-0.2 0.1-0.4 0.2-0.5 0.3-0.2 0.7-0.5 1.1-0.9 -0.4 0.1-0.8 0.1-1.1 0.1 0 0 0 0 0 0 -0.2 0-0.4-0.2-0.5-0.4C19.9 5.7 20 5.4 20.3 5.3c0.3-0.1 0.7-0.5 1-0.9 -0.6 0.2-1.2 0.4-1.6 0.5 -0.2 0-0.3 0-0.4-0.1 -1.6-1.5-3.4-1.7-5.3-0.5 -1.7 1-1.8 3.4-1.6 4.1 0 0.2 0 0.3-0.1 0.4 -0.1 0.1-0.3 0.2-0.4 0.2 -4.5-0.2-7.4-2.3-9.1-4.3C2.3 5.7 2.4 6.5 2.5 7.1c0.3 1.1 1 2 1.6 2.3 0.2 0.1 0.3 0.3 0.2 0.5 0 0.2-0.2 0.4-0.4 0.4C3.4 10.5 2.8 10.4 2.2 10.2c0.5 2.1 2.7 3.1 3.3 3.1 0.2 0 0.4 0.2 0.4 0.4 0.1 0.2 0 0.4-0.2 0.5 -0.4 0.4-1.1 0.6-1.8 0.5 0.8 1.1 2.1 1.8 3.7 1.8 0.2 0 0.4 0.1 0.5 0.3 0.1 0.2 0 0.4-0.1 0.5C6.8 18.4 5 19.2 3.1 19.4z"/></svg>