<svg xmlns="http://www.w3.org/2000/svg" version="1.1" width="32" height="32" viewBox="0 0 32 32"><path d="M30 6.8c-0.1-1.6-1.4-2.8-3-2.8h-3v-1c0-1.7-1.3-3-3-3h-10c-1.7 0-3 1.3-3 3v1h-3c-1.6 0-2.9 1.2-3 2.8h0v2.2c0 1.1 0.9 2 2 2v0 17c0 2.2 1.8 4 4 4h16c2.2 0 4-1.8 4-4v-17c1.1 0 2-0.9 2-2v-2.2h0zM10 3c0-0.6 0.4-1 1-1h10c0.6 0 1 0.4 1 1v1h-12v-1zM26 28c0 1.1-0.9 2-2 2h-16c-1.1 0-2-0.9-2-2v-17h20v17zM28 8v1h-24v-2c0-0.6 0.4-1 1-1h22c0.6 0 1 0.4 1 1v1zM9 28h2c0.6 0 1-0.4 1-1v-13c0-0.6-0.4-1-1-1h-2c-0.6 0-1 0.4-1 1v13c0 0.6 0.4 1 1 1zM9 14h2v13h-2v-13zM15 28h2c0.6 0 1-0.4 1-1v-13c0-0.6-0.4-1-1-1h-2c-0.6 0-1 0.4-1 1v13c0 0.6 0.4 1 1 1zM15 14h2v13h-2v-13zM21 28h2c0.6 0 1-0.4 1-1v-13c0-0.6-0.4-1-1-1h-2c-0.6 0-1 0.4-1 1v13c0 0.6 0.4 1 1 1zM21 14h2v13h-2v-13z" fill="#000000"/></svg>