<svg xmlns="http://www.w3.org/2000/svg" version="1.1" width="24" height="24" viewBox="0 0 24 24"><path d="M12 1q0.4 0 0.7 0.3l5 5q0.3 0.3 0.3 0.7 0 0.4-0.3 0.7t-0.7 0.3q-0.4 0-0.7-0.3l-3.3-3.3v11.6q0 0.4-0.3 0.7t-0.7 0.3-0.7-0.3-0.3-0.7v-11.6l-3.3 3.3q-0.3 0.3-0.7 0.3-0.4 0-0.7-0.3t-0.3-0.7q0-0.4 0.3-0.7l5-5q0.3-0.3 0.7-0.3zM22 15q0.4 0 0.7 0.3t0.3 0.7v4q0 1.3-0.9 2.1-0.9 0.9-2.1 0.9h-16q-1.2 0-2.1-0.9-0.9-0.9-0.9-2.1v-4q0-0.4 0.3-0.7t0.7-0.3 0.7 0.3 0.3 0.7v4q0 0.4 0.3 0.7t0.7 0.3h16q0.4 0 0.7-0.3t0.3-0.7v-4q0-0.4 0.3-0.7t0.7-0.3z" fill="#000000"/></svg>