<svg xmlns="http://www.w3.org/2000/svg" version="1.1" width="32" height="32" viewBox="0 0 32 32"><path d="M16 7c0.3 0 0.5 0.2 0.5 0.5s-0.2 0.5-0.5 0.5c-5.3 0-10 2.8-10 6 0 0.3-0.2 0.5-0.5 0.5s-0.5-0.2-0.5-0.5c0-3.8 5-7 11-7zM16 2c-8.8 0-16 5.4-16 12 0 4.1 2.8 7.8 7 9.9 0 0 0 0 0 0.1 0 1.8-1.3 3.7-1.9 4.7 0 0 0 0 0 0 0 0.1-0.1 0.2-0.1 0.4 0 0.5 0.4 0.9 0.9 0.9 0.1 0 0.3 0 0.3 0 3.1-0.5 6.1-3.4 6.8-4.2 1 0.1 2 0.2 3.1 0.2 8.8 0 16-5.4 16-12s-7.2-12-16-12zM16 24c-0.9 0-1.9-0.1-2.8-0.2-0.1 0-0.2 0-0.3 0-0.6 0-1.2 0.3-1.5 0.7-0.4 0.5-1.6 1.7-3.1 2.5 0.4-0.9 0.7-1.9 0.7-2.9 0-0.1 0-0.1 0-0.2 0-0.8-0.4-1.4-1.1-1.8-3.7-1.9-5.9-4.9-5.9-8.1 0-5.5 6.3-10 14-10 7.7 0 14 4.5 14 10s-6.3 10-14 10z" fill="#000000"/></svg>