<svg xmlns="http://www.w3.org/2000/svg" version="1.1" width="32" height="32" viewBox="0 0 32 32"><path d="M15.5 0c-8.6 0-15.5 6.9-15.5 15.5s6.9 15.5 15.5 15.5 15.5-6.9 15.5-15.5-6.9-15.5-15.5-15.5zM29 15h-6c-0.1-2.2-0.4-4.3-1.1-6.3 1.4-0.6 2.6-1.3 3.7-2.2 2 2.3 3.3 5.2 3.4 8.5zM14.9 29c-1.7-1.4-3.1-3.2-4.1-5.3 1.3-0.4 2.7-0.6 4.1-0.7v5.9c0 0 0 0-0.1 0zM16.1 2c1.9 1.6 3.4 3.7 4.5 6.1-1.4 0.5-2.9 0.8-4.5 0.8v-6.9c0 0 0 0 0.1 0zM17.7 2.2c2.8 0.5 5.2 1.7 7.2 3.6-1 0.8-2.2 1.5-3.4 2-0.9-2.2-2.2-4.1-3.7-5.6zM15 2v6.9c-1.6-0.1-3.1-0.3-4.5-0.8 1-2.5 2.6-4.6 4.5-6.1 0 0 0 0 0.1 0zM9.5 7.8c-1.2-0.5-2.4-1.2-3.4-2 1.9-1.9 4.4-3.2 7.2-3.6-1.5 1.5-2.8 3.5-3.7 5.6zM10.1 9.1c1.5 0.5 3.2 0.8 4.9 0.9v5h-6c0.1-2.1 0.4-4.1 1.1-5.9zM15 16v6c-1.6 0-3.1 0.3-4.5 0.8-0.9-2.1-1.4-4.4-1.4-6.8h6zM13.3 28.8c-2.5-0.4-4.7-1.5-6.5-3.1 1-0.7 2.1-1.3 3.2-1.7 0.9 1.8 2 3.4 3.4 4.8zM16 29v-5.9c1.4 0 2.8 0.3 4.1 0.7-1 2.1-2.4 3.9-4.1 5.3 0 0 0 0-0.1 0zM21.1 24.1c1.1 0.4 2.2 1 3.2 1.7-1.8 1.6-4.1 2.6-6.5 3.1 1.3-1.3 2.5-2.9 3.4-4.8zM20.5 22.8c-1.4-0.5-3-0.7-4.5-0.8v-6h6c-0.1 2.4-0.6 4.7-1.4 6.8zM16 15v-5c1.7-0.1 3.4-0.4 4.9-0.9 0.7 1.8 1 3.8 1.1 5.9h-6zM5.4 6.5c1.1 0.9 2.4 1.6 3.7 2.2-0.7 1.9-1.1 4.1-1.1 6.3h-6c0.1-3.2 1.4-6.2 3.4-8.5zM2 16h6c0.1 2.6 0.6 5 1.5 7.1-1.3 0.5-2.4 1.2-3.5 1.9-2.3-2.3-3.8-5.5-4-9.1zM25 25.1c-1.1-0.8-2.3-1.4-3.5-1.9 0.9-2.2 1.4-4.6 1.5-7.1h6c-0.1 3.5-1.6 6.7-4 9.1z" fill="#000000"/></svg>