<svg xmlns="http://www.w3.org/2000/svg" version="1.1" width="32" height="32" viewBox="0 0 32 32"><path d="M24 0h-16c-1.7 0-3 1.3-3 3v26c0 1.7 1.3 3 3 3h16c1.7 0 3-1.3 3-3v-26c0-1.7-1.3-3-3-3zM25 29c0 0.6-0.4 1-1 1h-16c-0.6 0-1-0.4-1-1v-2h18v2zM25 26h-18v-20h18v20zM25 5h-18v-2c0-0.6 0.4-1 1-1h16c0.6 0 1 0.4 1 1v2zM18 3.5c0 0.3-0.2 0.5-0.5 0.5h-3c-0.3 0-0.5-0.2-0.5-0.5v0c0-0.3 0.2-0.5 0.5-0.5h3c0.3 0 0.5 0.2 0.5 0.5v0zM17 28.5c0 0.3-0.2 0.5-0.5 0.5h-1c-0.3 0-0.5-0.2-0.5-0.5v0c0-0.3 0.2-0.5 0.5-0.5h1c0.3 0 0.5 0.2 0.5 0.5v0z" fill="#000000"/></svg>