<svg xmlns="http://www.w3.org/2000/svg" version="1.1" width="32" height="32" viewBox="0 0 32 32"><path d="M16 0c-6.1 0-11 4.9-11 11 0 4 3.7 8.3 5 12.1 2 5.6 1.8 8.9 6 8.9 4.3 0 4-3.3 6-8.9 1.3-3.8 5-8.1 5-12.1 0-6.1-4.9-11-11-11zM18.6 27.2l-5 0.6c-0.2-0.5-0.4-1.1-0.6-1.9 0 0 0 0 0 0l6.2-0.8c-0.1 0.3-0.2 0.6-0.3 0.9-0.1 0.4-0.2 0.8-0.4 1.2zM12.7 24.9c-0.2-0.6-0.4-1.2-0.6-1.9h7.8c-0.1 0.4-0.2 0.7-0.4 1.1l-6.8 0.8zM16 30c-1 0-1.5-0.1-2-1.2l4.2-0.5c-0.6 1.7-1.1 1.8-2.2 1.8zM20.7 21h-9.3c-0.5-1.1-1.1-2.2-1.7-3.2-1.3-2.3-2.7-4.7-2.7-6.8 0-5 4-9 9-9s9 4 9 9c0 2-1.3 4.4-2.7 6.8-0.6 1.1-1.2 2.1-1.7 3.2zM16 5c0.3 0 0.5 0.2 0.5 0.5s-0.2 0.5-0.5 0.5c-2.8 0-5 2.2-5 5 0 0.3-0.2 0.5-0.5 0.5s-0.5-0.2-0.5-0.5c0-3.3 2.7-6 6-6z" fill="#000000"/></svg>