<svg xmlns="http://www.w3.org/2000/svg" width="25" height="30" viewBox="0 0 25 30" version="1.1"><g stroke="none" stroke-width="1" fill="none" fill-rule="evenodd"><path d="M26.5 2.5L-1.5 2.5C-2.1 2.5-2.5 2.9-2.5 3.5L-2.5 11.2C-2.5 11.7-2.1 12.1-1.5 12.1 -0.9 12.1-0.5 11.7-0.5 11.2L-0.5 4.4 25.5 4.4 25.5 11.2C25.5 11.7 25.9 12.1 26.5 12.1 27.1 12.1 27.5 11.7 27.5 11.2L27.5 3.5C27.5 2.9 27.1 2.5 26.5 2.5L26.5 2.5ZM16.8 20.1L13.5 23.9 13.5 10.2C13.5 9.7 13.1 9.2 12.5 9.2 11.9 9.2 11.5 9.7 11.5 10.2L11.5 23.9 8.2 20.1C7.8 19.7 7.2 19.7 6.8 20.1 6.4 20.5 6.4 21.1 6.8 21.5L11.7 27.2C11.9 27.4 12.2 27.5 12.5 27.5 12.8 27.5 13 27.4 13.2 27.2L18.2 21.5C18.6 21.1 18.6 20.5 18.2 20.1 17.8 19.7 17.2 19.7 16.8 20.1L16.8 20.1Z" fill="#000000" transform="translate(12.499100, 15.001801) rotate(270.000000) translate(-12.499100, -15.001801) "/></g></svg>
