<svg xmlns="http://www.w3.org/2000/svg" version="1.1" width="32" height="32" viewBox="0 0 32 32"><path d="M27 14c0-5-4-9-9-9v0c-0.3 0-0.5-0.2-0.5-0.5s0.2-0.5 0.5-0.5c0 0 0 0 0 0 5.5 0 10 4.5 10 10 0 0 0 0 0 0 0 0.3-0.2 0.5-0.5 0.5s-0.5-0.2-0.5-0.5h0zM9.1 0.9c-0.6-0.6-1.3-0.9-2.1-0.9-0.4 0-0.8 0.1-1.1 0.2-1.1 0.5-1.9 1.6-1.9 2.8l0 13.8-3.1 3.1c-1.2 1.2-1.2 3.1 0 4.2l7 7c0.6 0.6 1.4 0.9 2.1 0.9s1.5-0.3 2.1-0.9l3.1-3.1h13.8c1.2 0 2.3-0.7 2.8-1.9 0.5-1.1 0.2-2.4-0.6-3.3l-22-22zM13.8 26.6l-3.1 3.1c-0.3 0.3-0.6 0.3-0.7 0.3s-0.5 0-0.7-0.3l-7-7c-0.3-0.3-0.3-0.6-0.3-0.7s0-0.5 0.3-0.7l3.1-3.1c0 0 0 0 0 0l8.4 8.4c0 0 0 0 0 0zM15.2 26c-0.2 0-0.3 0.1-0.4 0.1l-8.9-8.9c0-0.1 0.1-0.3 0.1-0.4l0-12 21.3 21.3h-12zM29.9 25.4c-0.2 0.4-0.5 0.6-0.9 0.6h-0.3l-22.7-22.7v-0.3c0-0.4 0.2-0.8 0.6-0.9 0.1-0.1 0.3-0.1 0.4-0.1 0.3 0 0.5 0.1 0.7 0.3l22 22c0.3 0.3 0.4 0.7 0.2 1.1zM18 2c-0.6 0-1-0.4-1-1 0-0.6 0.4-1 1-1 0 0 0 0 0 0 7.7 0 14 6.3 14 14 0 0 0 0 0 0 0 0.6-0.4 1-1 1-0.6 0-1-0.4-1-1h0c0-6.6-5.4-12-12-12v0z" fill="#000000"/></svg>