<svg xmlns="http://www.w3.org/2000/svg" version="1.1" width="32" height="32" viewBox="0 0 32 32"><path d="M31.4 10.6l-10-10c-0.5-0.5-1.2-0.7-1.9-0.5-0.4 0.1-0.7 0.3-0.9 0.5-0.2 0.2-0.4 0.5-0.5 0.8-0.5 1.5-1.2 2.7-2.4 3.9-1.5 1.5-3.6 2.7-5.7 4-2.3 1.3-4.6 2.7-6.5 4.6-1.6 1.6-2.7 3.4-3.4 5.6-0.2 0.7 0 1.5 0.5 2l10 10c0.5 0.5 1.2 0.7 1.9 0.5 0.4-0.1 0.7-0.3 0.9-0.5 0.2-0.2 0.4-0.5 0.5-0.8 0.5-1.5 1.2-2.7 2.4-3.9 1.5-1.5 3.6-2.7 5.7-4 2.3-1.3 4.6-2.7 6.5-4.6 1.6-1.6 2.7-3.4 3.4-5.6 0.2-0.7 0-1.5-0.5-2zM12 30c-3.3-3.3-6.7-6.7-10-10 2.8-9.2 15.2-8.8 18-18 3.3 3.3 6.7 6.7 10 10-2.8 9.2-15.2 8.8-18 18zM19.6 14.9c-0.3-0.3-0.7-0.5-1-0.6-0.3-0.1-0.7-0.1-1-0.1-0.3 0-0.7 0.1-1 0.2-0.3 0.1-0.7 0.3-1 0.4-0.5-0.6-1.1-1.2-1.6-1.8 0.2-0.2 0.5-0.3 0.7-0.3 0.2 0 0.4 0 0.7 0.1 0.2 0.1 0.4 0.1 0.6 0.1 0.2 0 0.3 0 0.5-0.1 0.1-0.1 0.2-0.3 0.2-0.5 0-0.2-0.1-0.4-0.2-0.6-0.2-0.2-0.5-0.4-0.8-0.4-0.3-0.1-0.6 0-0.9 0-0.3 0.1-0.6 0.2-0.9 0.4s-0.5 0.3-0.7 0.5c-0.1-0.1-0.1-0.1-0.2-0.2-0.1-0.1-0.2-0.1-0.3-0.1-0.1 0-0.2 0-0.3 0.1-0.1 0.1-0.1 0.2-0.1 0.3 0 0.1 0.1 0.2 0.1 0.3 0.1 0.1 0.1 0.1 0.2 0.2-0.3 0.3-0.5 0.7-0.6 1-0.2 0.4-0.3 0.7-0.3 1.1 0 0.4 0 0.7 0.1 1 0.1 0.3 0.3 0.6 0.6 0.8 0.5 0.4 1 0.6 1.7 0.5 0.6 0 1.3-0.2 2.1-0.6 0.6 0.7 1.2 1.4 1.8 2-0.2 0.2-0.5 0.3-0.7 0.4-0.2 0-0.4 0-0.5 0-0.2 0-0.3-0.1-0.4-0.2-0.1-0.1-0.3-0.2-0.4-0.2-0.1-0.1-0.3-0.1-0.4-0.1s-0.3 0.1-0.4 0.2c-0.2 0.1-0.2 0.3-0.2 0.5s0.1 0.4 0.3 0.6c0.2 0.2 0.4 0.4 0.7 0.5s0.6 0.2 0.9 0.2c0.3 0 0.7 0 1.1-0.2 0.4-0.1 0.7-0.4 1.1-0.7 0.2 0.2 0.4 0.3 0.5 0.5 0.1 0.1 0.2 0.1 0.3 0.1 0.1 0 0.2-0.1 0.3-0.1 0.1-0.1 0.1-0.2 0.1-0.3 0-0.1-0.1-0.2-0.1-0.2-0.2-0.1-0.4-0.3-0.5-0.4 0.3-0.4 0.5-0.8 0.7-1.1 0.2-0.4 0.3-0.8 0.3-1.1 0-0.3 0-0.7-0.1-0.9-0.1-0.3-0.3-0.5-0.6-0.8zM14 15.6c-0.3 0-0.5-0.1-0.7-0.3-0.1-0.1-0.2-0.2-0.2-0.3 0-0.1-0.1-0.3 0-0.4 0-0.1 0.1-0.3 0.1-0.5 0.1-0.2 0.2-0.3 0.3-0.5 0.5 0.5 1 1.1 1.5 1.6-0.4 0.2-0.7 0.3-1 0.3zM18.7 17.6c-0.1 0.2-0.2 0.3-0.3 0.4-0.6-0.6-1.1-1.2-1.7-1.8 0.1-0.1 0.3-0.1 0.5-0.2s0.3-0.1 0.5-0.1c0.2 0 0.3 0 0.5 0 0.2 0 0.3 0.1 0.5 0.3 0.1 0.1 0.2 0.3 0.3 0.4 0 0.2 0 0.3 0 0.5 0 0.2-0.1 0.3-0.2 0.5zM14.7 22.2c0.2-0.2 0.5-0.2 0.7 0 0.2 0.2 0.2 0.5 0 0.7 0 0 0 0-0.1 0l0 0c-0.6 0.5-1.2 0.9-1.7 1.5-0.5 0.5-1 1-1.4 1.6l-0.6 0.9c0 0 0 0.1-0.1 0.1-0.2 0.2-0.5 0.2-0.7 0-0.2-0.2-0.2-0.4-0.1-0.6l0 0 0.7-0.9c0.4-0.6 0.9-1.2 1.5-1.7 0.6-0.6 1.2-1.1 1.8-1.6h0zM18.4 7.7c0.5-0.5 1-1 1.4-1.6l0.7-0.9c0 0 0.1-0.1 0.1-0.1 0.2-0.2 0.5-0.2 0.7 0 0.2 0.2 0.2 0.5 0 0.7l0 0-0.7 0.9c-0.4 0.6-0.9 1.2-1.5 1.7-0.6 0.6-1.2 1.1-1.8 1.6l0 0c-0.2 0.2-0.5 0.2-0.7 0-0.2-0.2-0.2-0.5 0-0.7 0 0 0.1-0.1 0.1-0.1 0.6-0.4 1.2-0.9 1.7-1.4z" fill="#000000"/></svg>
