<svg xmlns="http://www.w3.org/2000/svg" version="1.1" width="24" height="24" viewBox="0 0 24 24"><path d="M12 1q2.2 0 4.3 0.9t3.5 2.3 2.3 3.5 0.9 4.3-0.9 4.3-2.3 3.5-3.5 2.3-4.3 0.9-4.3-0.9-3.5-2.3-2.3-3.5-0.9-4.3 0.9-4.3 2.3-3.5 3.5-2.3 4.3-0.9zM12 3q-1.8 0-3.5 0.7t-2.9 1.9-1.9 2.9-0.7 3.5 0.7 3.5 1.9 2.9 2.9 1.9 3.5 0.7 3.5-0.7 2.9-1.9 1.9-2.9 0.7-3.5-0.7-3.5-1.9-2.9-2.9-1.9-3.5-0.7zM12 7q0.4 0 0.7 0.3t0.3 0.7v3h3q0.4 0 0.7 0.3t0.3 0.7-0.3 0.7-0.7 0.3h-3v3q0 0.4-0.3 0.7t-0.7 0.3-0.7-0.3-0.3-0.7v-3h-3q-0.4 0-0.7-0.3t-0.3-0.7 0.3-0.7 0.7-0.3h3v-3q0-0.4 0.3-0.7t0.7-0.3z" fill="#000000"/></svg>