<svg xmlns="http://www.w3.org/2000/svg" version="1.1" width="32" height="32" viewBox="0 0 32 32"><path d="M31.4 11.2l-3-4c-0.1-0.2-0.3-0.3-0.4-0.4v-4.8c0-1.1-0.9-2-2-2h-20c-1.1 0-2 0.9-2 2v4.8c-0.1 0.1-0.3 0.3-0.4 0.4l-3 4c-0.4 0.5-0.6 1.2-0.6 1.8v1c0 1.7 1.3 3 3 3v0 13c0 1.1 0.9 2 2 2h22c1.1 0 2-0.9 2-2v-13c1.7 0 3-1.3 3-3v-1c0-0.6-0.2-1.3-0.6-1.8zM26 2v4h-20v-4h20zM10.2 15h-4.2l4-7h2.2l-2 7zM13.2 8h2.3v7h-4.3l2-7zM16.5 8h2.3l2 7h-4.3v-7zM19.8 8h2.2l4 7h-4.2l-2-7zM2 14v-1c0-0.2 0.1-0.4 0.2-0.6l3-4c0.2-0.3 0.5-0.4 0.8-0.4h2.9l-4 7h-1.9c-0.6 0-1-0.4-1-1zM20 30h-7.5v-10h7.5v10zM27 30h-6v-10c0-0.6-0.4-1-1-1h-7.5c-0.6 0-1 0.4-1 1v10h-6.5v-13h22v13zM30 14c0 0.6-0.4 1-1 1h-1.9l-4-7h2.9c0.3 0 0.6 0.1 0.8 0.4l3 4c0.1 0.2 0.2 0.4 0.2 0.6v1z" fill="#000000"/></svg>