<svg xmlns="http://www.w3.org/2000/svg" version="1.1" width="32" height="32" viewBox="0 0 32 32"><path d="M29.3 3h-4.3v-2c0-0.6-0.4-1-1-1s-1 0.4-1 1v2h-6v-2c0-0.6-0.4-1-1-1s-1 0.4-1 1v2h-6v-2c0-0.6-0.4-1-1-1s-1 0.4-1 1v2h-4.3c-1.5 0-2.7 1.2-2.7 2.7v23.7c0 1.5 1.2 2.7 2.7 2.7h26.7c1.5 0 2.7-1.2 2.7-2.7v-23.7c0-1.5-1.2-2.7-2.7-2.7zM30 29.3c0 0.4-0.3 0.7-0.7 0.7h-26.7c-0.4 0-0.7-0.3-0.7-0.7v-23.7c0-0.4 0.3-0.7 0.7-0.7h4.3v2c0 0.6 0.4 1 1 1s1-0.4 1-1v-2h6v2c0 0.6 0.4 1 1 1s1-0.4 1-1v-2h6v2c0 0.6 0.4 1 1 1s1-0.4 1-1v-2h4.3c0.4 0 0.7 0.3 0.7 0.7v23.7zM7 12h4v3h-4zM7 17h4v3h-4zM7 22h4v3h-4zM14 22h4v3h-4zM14 17h4v3h-4zM14 12h4v3h-4zM21 22h4v3h-4zM21 17h4v3h-4zM21 12h4v3h-4z" fill="#000000"/></svg>