<svg xmlns="http://www.w3.org/2000/svg" version="1.1" width="32" height="32" viewBox="0 0 32 32"><path d="M29.4 2.6c-1.6-1.6-3.8-2.6-5.9-2.6-1.8 0-3.5 0.7-4.7 1.9l-4.9 4.9c0 0 0 0 0 0 0 0 0 0 0 0l0 0-10.3 10.4c-0.5 0.5-0.8 1.1-1 1.7l-2.3 8.5c0 0-0.2 0.7-0.2 1 0 1.9 1.6 3.5 3.5 3.5 0.4 0 1.1-0.2 1.2-0.2l8.5-2.2c0.6-0.2 1.2-0.5 1.7-1l15.3-15.4c2.8-2.8 2.5-7.4-0.7-10.6zM16 23.8c-0.1-0.9-0.3-1.8-0.7-2.6l9.5-9.5c0.6 1.8 0.3 3.7-1 5 0 0 0 0 0 0l0 0-7.7 7.8c0-0.2 0-0.5 0-0.7zM14.8 20.3c-0.4-0.6-0.8-1.2-1.3-1.7-0.6-0.6-1.3-1.1-2-1.5l9.5-9.5c0.7 0.3 1.5 0.8 2.1 1.4 0.5 0.5 1 1.1 1.3 1.8l-9.5 9.5zM10.5 16.6c-0.9-0.4-1.9-0.6-2.9-0.6l7.7-7.8c1.2-1.1 2.9-1.5 4.6-1.1l-9.4 9.4zM4.2 29.9c-0.1 0-0.4 0.1-0.7 0.1-0.8 0-1.5-0.7-1.5-1.5 0-0.2 0.1-0.5 0.1-0.6l1.1-3.8c1.1 0 2.4 0.4 3.3 1.4 1 1 1.4 2.2 1.4 3.4l-3.7 1zM8.9 28.6c0-1.3-0.6-2.7-1.7-3.8-1-1-2.4-1.6-3.8-1.7l1-3.6c0.1-0.2 0.2-0.5 0.4-0.7 2-1.4 5.1-1 7.2 1.1 2.3 2.3 2.6 5.6 0.9 7.6-0.1 0.1-0.2 0.1-0.4 0.2l-3.7 1zM28.7 11.8l-1.7 1.7c0-0.2 0-0.4 0-0.7-0.2-1.9-1.1-3.8-2.5-5.3-1.6-1.6-3.8-2.6-5.9-2.6l1.7-1.7c0.8-0.8 2-1.3 3.3-1.3 1.6 0 3.3 0.7 4.5 2 1.2 1.2 1.9 2.7 2 4.2 0.1 1.4-0.4 2.7-1.3 3.6z" fill="#000000"/></svg>