<svg xmlns="http://www.w3.org/2000/svg" version="1.1" width="32" height="32" viewBox="0 0 32 32"><path d="M16 17.7c3.3 0 6-2.7 6-6s-2.7-6-6-6c-3.3 0-6 2.7-6 6s2.7 6 6 6zM16 6.7c2.8 0 5 2.2 5 5s-2.2 5-5 5c-2.8 0-5-2.2-5-5s2.2-5 5-5zM16 0c-6.6 0-12 5.3-12 12 0 7 6 14.2 10.4 19.2 0 0 0.7 0.8 1.6 0.8 0 0 0.1 0 0.1 0 0.9 0 1.6-0.8 1.6-0.8 4.4-5 10.4-12.2 10.4-19.2 0-6.7-5.4-12-12-12zM16.1 29.9c0 0-0.1 0.1-0.1 0.1 0 0-0.1-0.1-0.1-0.1-3.7-4.2-9.9-11.3-9.9-17.8 0-5.5 4.5-10 10-10 5.5 0 10 4.5 10 10 0 6.5-6.2 13.6-9.9 17.9z" fill="#000000"/></svg>