<svg xmlns="http://www.w3.org/2000/svg" version="1.1" width="32" height="32" viewBox="0 0 32 32"><path d="M16 0c-6.7 0-14 2-14 6.5v19c0 4.5 7.3 6.5 14 6.5s14-2 14-6.5v-19c0-4.5-7.3-6.5-14-6.5zM28 25.5c0 2.5-5.4 4.5-12 4.5-6.6 0-12-2-12-4.5v-3.7c2.1 2.1 7.1 3.2 12 3.2s9.9-1.1 12-3.2v3.7zM28 19.5h0c0 0 0 0 0 0 0 2.5-5.4 4.5-12 4.5s-12-2-12-4.5c0 0 0 0 0 0h0v-3.7c2.1 2.1 7.1 3.2 12 3.2s9.9-1.1 12-3.2v3.7zM28 13.5h0c0 0 0 0 0 0 0 2.5-5.4 4.5-12 4.5s-12-2-12-4.5c0 0 0 0 0 0h0v-3.4c2.6 2 7.4 2.9 12 2.9s9.4-0.9 12-2.9v3.4zM16 11c-6.6 0-12-2-12-4.5 0-2.5 5.4-4.5 12-4.5 6.6 0 12 2 12 4.5 0 2.5-5.4 4.5-12 4.5zM24 26c0-0.6 0.4-1 1-1s1 0.4 1 1c0 0.6-0.4 1-1 1s-1-0.4-1-1zM24 20c0-0.6 0.4-1 1-1s1 0.4 1 1c0 0.6-0.4 1-1 1s-1-0.4-1-1zM24 14c0-0.6 0.4-1 1-1s1 0.4 1 1c0 0.6-0.4 1-1 1s-1-0.4-1-1z" fill="#000000"/></svg>