<svg xmlns="http://www.w3.org/2000/svg" version="1.1" width="32" height="32" viewBox="0 0 32 32"><path d="M25.9 13.1c-0.4-4.6-4.2-8.1-8.9-8.1-3.6 0-6.7 2.1-8.1 5.2-0.4-0.1-0.9-0.2-1.4-0.2-2.5 0-4.5 2-4.5 4.5 0 0.5 0.1 1 0.2 1.4-1.9 1.1-3.2 3.2-3.2 5.6 0 3.6 2.9 6.5 6.5 6.5v0l18 0c4.1 0 7.5-3.4 7.5-7.5 0-3.7-2.6-6.7-6.1-7.4zM24.5 26v0h-18c-2.5 0-4.5-2-4.5-4.5 0-1.6 0.8-3 2.3-3.9 1.4-0.8 1.5-0.9 0.9-2.4-0.1-0.3-0.1-0.5-0.1-0.8 0-1.4 1.1-2.5 2.5-2.5 0 0 0.7 0 1.4 0.2 1.1 0.5 1.3 0 1.8-1.2 1.1-2.5 3.6-4.1 6.3-4.1 3.6 0 6.6 2.7 6.9 6.3 0.1 1.4 0.1 1.4 1.6 1.8 2.6 0.5 4.5 2.8 4.5 5.4 0 3-2.5 5.5-5.5 5.5z" fill="#000000"/></svg>